<svg height="30" viewBox="0 0 30 30" width="30" xmlns="http://www.w3.org/2000/svg"><g fill="none" fill-rule="evenodd"><path d="m0 0h30v30h-30z" fill="none"/><g fill-rule="nonzero" transform="translate(2)"><path d="m13.305 5.557 2.205-1.266v-3.021l-2.205-1.266v-.004z" fill="#b4b5b5"/><path d="m5.205 18.724v-8.503l7.356-4.23v-5.986l-12.187 7.005c-.234.132-.374.38-.374.645v14.02c0 .012.004.028.004.04l5.2-2.99z" fill="#73bfbc"/><path d="m20.296 19.32-7.36 4.237-7.32-4.208-5.205 2.992 12.15 6.989c.117.066.245.099.374.099s.258-.033.374-.1l12.187-7.009c.004 0 .004-.004.009-.004l-5.21-2.996z" fill="#6d6e70"/><path d="m25.492 7.01-4.83-2.777v3.02l-5.193 2.988 5.192 2.984v5.445l5.205 2.992v-14.007c0-.265-.141-.509-.374-.645z" fill="#b4b5b5"/><path d="m10.356 13.183v5.926l5.055-2.905v-5.93z" fill="#6d6e70"/></g></g></svg>